<?xml version="1.0" encoding="UTF-8" standalone="no"?><!DOCTYPE svg PUBLIC "-//W3C//DTD SVG 1.1//EN" "http://www.w3.org/Graphics/SVG/1.1/DTD/svg11.dtd"><svg width="100%" height="100%" viewBox="0 0 100 100" version="1.1" xmlns="http://www.w3.org/2000/svg" xmlnsXlink="http://www.w3.org/1999/xlink" xmlSpace="preserve" xmlnsSerif="http://www.serif.com/" style="fill-rule:evenodd;clip-rule:evenodd;stroke-linejoin:round;stroke-miterlimit:1.41421;"><rect x="0" y="0" width="100" height="100" style="fill:none;"/><path d="M23.225,32.145l23.286,-13.444l-3.361,-5.822l5.821,-3.361l3.361,5.822l2.911,-1.681c3.201,-1.848 7.334,-0.741 9.182,2.461l23.527,40.75c1.849,3.201 0.741,7.334 -2.46,9.182l-40.75,23.527c-3.23,1.865 -7.334,0.741 -9.183,-2.46l-23.497,-40.767c-1.849,-3.202 -0.8,-7.3 2.431,-9.166l2.911,-1.68l-3.361,-5.822l5.821,-3.361l3.361,5.822Zm17.62,9.544l-6.946,4.011c-0.705,0.407 -1.214,1.077 -1.425,1.861l-1.92,7.144l-4.653,2.686c-0.73,0.421 -0.982,1.362 -0.561,2.092l9.184,15.907c0.422,0.73 1.363,0.982 2.092,0.561l6.17,-3.562l11.422,2.457c3.338,0.538 6.478,-1.739 7.015,-5.077l0.007,-0.026l2.225,0.427c1.94,0.318 3.769,-1.015 4.078,-2.95l0.755,-4.702l0.658,0.106c1.666,0.264 3.246,-0.869 3.505,-2.544l0.227,-1.424c0.268,-1.68 -0.867,-3.245 -2.54,-3.519l-18.175,-2.901l-1.171,3.716c-1.59,5.018 -6.626,5.14 -8.641,4.502c-3.637,-1.149 -5.641,-5.022 -4.503,-8.641l3.197,-10.124Zm12.078,-6.973l-7.122,4.112c-0.662,0.382 -1.157,1 -1.388,1.73l-3.841,12.165c-0.004,0.013 -0.002,0.034 -0.006,0.047c-0.632,2.101 0.592,4.146 2.506,4.743c1.298,0.411 3.935,0.115 4.78,-2.462c0.004,-0.012 0.02,-0.022 0.023,-0.035l2.072,-6.557l1.057,-3.34c0.256,-0.8 1.113,-1.25 1.921,-0.998c0.808,0.252 1.25,1.112 0.999,1.921l-1.02,3.23l17.726,2.83c1.485,0.237 2.741,1.014 3.654,2.08l3.459,-1.997c0.729,-0.421 0.982,-1.363 0.561,-2.093l-9.179,-15.899c-0.421,-0.729 -1.359,-0.973 -2.088,-0.552l-4.652,2.686l-7.139,-1.913c-0.785,-0.209 -1.619,-0.104 -2.323,0.302Z" style="fill:#384e65;fill-rule:nonzero;"/></svg>
