<?xml version="1.0" encoding="UTF-8" standalone="no"?><!DOCTYPE svg PUBLIC "-//W3C//DTD SVG 1.1//EN" "http://www.w3.org/Graphics/SVG/1.1/DTD/svg11.dtd"><svg width="100%" height="100%" viewBox="0 0 63 70" version="1.1" xmlns="http://www.w3.org/2000/svg" xmlnsXlink="http://www.w3.org/1999/xlink" xmlSpace="preserve" xmlnsSerif="http://www.serif.com/" style="fill-rule:evenodd;clip-rule:evenodd;stroke-linejoin:round;stroke-miterlimit:1.41421;"><rect x="0" y="0" width="63" height="70" style="fill:none;"/><path d="M18.056,8.112l26.888,0l0,-6.722l6.722,0l0,6.722l3.361,0c3.697,0 6.722,3.025 6.722,6.722l0,47.054c0,3.697 -3.025,6.722 -6.722,6.722l-47.054,0c-3.73,0 -6.722,-3.025 -6.722,-6.722l0.034,-47.054c0,-3.697 2.957,-6.722 6.688,-6.722l3.361,0l0,-6.722l6.722,0l0,6.722Zm10.487,17.076l-8.021,0c-0.814,0 -1.589,0.326 -2.164,0.9l-5.235,5.226l-5.373,0c-0.842,0 -1.531,0.689 -1.531,1.531l0,18.368c0,0.843 0.689,1.532 1.531,1.532l7.124,0l8.663,7.839c2.622,2.135 6.48,1.733 8.614,-0.89l0.019,-0.019l1.714,1.483c1.521,1.245 3.771,1.005 5.006,-0.516l3.005,-3.695l0.517,0.421c1.311,1.062 3.245,0.871 4.307,-0.45l0.909,-1.12c1.072,-1.321 0.872,-3.244 -0.44,-4.317l-14.29,-11.6l-2.872,2.632c-3.886,3.551 -8.308,1.139 -9.734,-0.421c-2.575,-2.814 -2.374,-7.17 0.421,-9.735l7.83,-7.169Zm13.946,0l-8.223,0c-0.765,0 -1.502,0.287 -2.067,0.804l-9.409,8.615c-0.01,0.009 -0.019,0.028 -0.029,0.038c-1.598,1.503 -1.56,3.886 -0.201,5.36c0.919,1.005 3.35,2.067 5.37,0.258c0.01,-0.009 0.029,-0.009 0.038,-0.019l5.073,-4.642l2.585,-2.364c0.622,-0.565 1.589,-0.527 2.163,0.096c0.574,0.622 0.526,1.588 -0.096,2.163l-2.498,2.287l13.936,11.314c1.168,0.948 1.867,2.249 2.125,3.628l3.994,0c0.842,0 1.532,-0.689 1.532,-1.532l0,-18.358c0,-0.842 -0.69,-1.522 -1.532,-1.522l-5.372,0l-5.226,-5.226c-0.575,-0.574 -1.35,-0.9 -2.163,-0.9Z" style="fill:#fff;fill-rule:nonzero;"/></svg>
