<?xml version="1.0" encoding="UTF-8" standalone="no"?><!DOCTYPE svg PUBLIC "-//W3C//DTD SVG 1.1//EN" "http://www.w3.org/Graphics/SVG/1.1/DTD/svg11.dtd"><svg width="100%" height="100%" viewBox="0 0 369 70" version="1.1" xmlns="http://www.w3.org/2000/svg" xmlnsXlink="http://www.w3.org/1999/xlink" xmlSpace="preserve" xmlnsSerif="http://www.serif.com/" style="fill-rule:evenodd;clip-rule:evenodd;stroke-linejoin:round;stroke-miterlimit:1.41421;"><rect x="0" y="0" width="369" height="70" style="fill:none;"/><g><path d="M79.597,39.909c0,-5.091 1.181,-9.628 3.542,-13.612c2.361,-3.985 5.583,-7.059 9.665,-9.223c4.083,-2.164 8.645,-3.246 13.687,-3.246c2.656,0 5.121,0.338 7.396,1.014c2.275,0.676 4.255,1.611 5.94,2.804c1.684,1.193 3.148,2.484 4.39,3.873c1.242,1.39 2.33,2.933 3.265,4.63l-9.223,4.538c-1.082,-2.115 -2.693,-3.862 -4.833,-5.239c-2.14,-1.377 -4.451,-2.066 -6.935,-2.066c-4.599,0 -8.393,1.562 -11.381,4.685c-2.988,3.124 -4.482,7.071 -4.482,11.842c0,4.771 1.494,8.725 4.482,11.861c2.988,3.135 6.782,4.703 11.381,4.703c2.484,0 4.795,-0.695 6.935,-2.084c2.14,-1.39 3.751,-3.142 4.833,-5.257l9.223,4.464c-0.96,1.697 -2.048,3.24 -3.265,4.63c-1.218,1.389 -2.675,2.686 -4.372,3.891c-1.697,1.206 -3.683,2.152 -5.958,2.841c-2.275,0.689 -4.74,1.033 -7.396,1.033c-3.763,0 -7.299,-0.639 -10.606,-1.918c-3.308,-1.279 -6.161,-3.044 -8.559,-5.294c-2.398,-2.25 -4.286,-5.005 -5.663,-8.264c-1.377,-3.258 -2.066,-6.794 -2.066,-10.606Z" style="fill:#34495e;fill-rule:nonzero;"/><path d="M133.568,56.363c-1.5,-2.903 -2.25,-6.1 -2.25,-9.592c0,-3.492 0.756,-6.671 2.269,-9.536c1.512,-2.865 3.75,-5.177 6.714,-6.936c2.964,-1.758 6.388,-2.637 10.274,-2.637c3.911,0 7.354,0.879 10.329,2.637c2.976,1.759 5.221,4.071 6.733,6.936c1.513,2.865 2.269,6.044 2.269,9.536c0,3.492 -0.756,6.683 -2.269,9.573c-1.512,2.89 -3.757,5.22 -6.733,6.991c-2.975,1.771 -6.418,2.656 -10.329,2.656c-3.886,0 -7.31,-0.885 -10.274,-2.656c-2.964,-1.771 -5.208,-4.095 -6.733,-6.972Zm7.711,-9.592c0,3 0.83,5.527 2.49,7.581c1.66,2.054 3.929,3.08 6.806,3.08c2.902,0 5.189,-1.02 6.862,-3.062c1.672,-2.041 2.508,-4.574 2.508,-7.599c0,-2.976 -0.836,-5.478 -2.508,-7.507c-1.673,-2.029 -3.96,-3.044 -6.862,-3.044c-2.877,0 -5.146,1.015 -6.806,3.044c-1.66,2.029 -2.49,4.531 -2.49,7.507Z" style="fill:#34495e;fill-rule:nonzero;"/><path d="M177.284,65.069l0,-50.393l35.673,0l0,9.444l-24.938,0l0,10.588l24.385,0l0,9.444l-24.385,0l0,11.473l24.938,0l0,9.444l-35.673,0Z" style="fill:#34495e;fill-rule:nonzero;"/><path d="M215.872,28.584l10.255,0l9.518,25.381l9.592,-25.381l10.292,0l-14.645,36.485l-10.367,0l-14.645,-36.485Z" style="fill:#34495e;fill-rule:nonzero;"/><path d="M257.484,46.771c0,-3.517 0.8,-6.726 2.398,-9.629c1.599,-2.902 3.849,-5.207 6.751,-6.917c2.902,-1.709 6.149,-2.563 9.739,-2.563c5.46,0 9.869,1.85 13.226,5.552c3.357,3.701 5.035,8.527 5.035,14.479l0,2.251l-27.114,0c0.344,2.361 1.438,4.316 3.283,5.865c1.844,1.55 4.255,2.324 7.231,2.324c1.623,0 3.363,-0.326 5.22,-0.977c1.856,-0.652 3.338,-1.519 4.445,-2.601l4.279,6.345c-1.771,1.623 -3.99,2.878 -6.659,3.763c-2.668,0.885 -5.453,1.328 -8.355,1.328c-5.632,0 -10.287,-1.765 -13.963,-5.294c-3.677,-3.529 -5.516,-8.171 -5.516,-13.926Zm9.961,-3.468l17.966,0c-0.074,-0.934 -0.295,-1.832 -0.664,-2.693c-0.369,-0.861 -0.892,-1.684 -1.568,-2.471c-0.677,-0.787 -1.605,-1.421 -2.785,-1.9c-1.181,-0.48 -2.521,-0.72 -4.022,-0.72c-1.426,0 -2.705,0.234 -3.836,0.701c-1.131,0.467 -2.041,1.088 -2.73,1.863c-0.689,0.775 -1.23,1.599 -1.623,2.472c-0.394,0.873 -0.64,1.789 -0.738,2.748Z" style="fill:#34495e;fill-rule:nonzero;"/><path d="M301.569,65.069l0,-36.485l9.591,0l0,4.685c1.328,-1.549 3.105,-2.871 5.331,-3.966c2.226,-1.094 4.704,-1.641 7.434,-1.641c3.935,0 6.91,1.026 8.927,3.08c2.017,2.053 3.025,4.913 3.025,8.577l0,25.75l-9.665,0l0,-22.061c0,-2.41 -0.584,-4.144 -1.752,-5.202c-1.169,-1.057 -2.835,-1.586 -4.999,-1.586c-1.746,0 -3.333,0.4 -4.759,1.199c-1.427,0.799 -2.607,1.802 -3.542,3.007l0,24.643l-9.591,0Z" style="fill:#34495e;fill-rule:nonzero;"/><path d="M341.189,36.958l0,-8.374l6.051,0l0,-9.998l9.591,0l0,9.998l7.415,0l0,8.374l-7.415,0l0,16.416c0,1.181 0.295,2.152 0.886,2.915c0.59,0.762 1.401,1.143 2.434,1.143c0.689,0 1.353,-0.11 1.992,-0.332c0.64,-0.221 1.095,-0.492 1.365,-0.811l2.029,7.341c-1.746,1.574 -4.414,2.361 -8.005,2.361c-3.345,0 -5.896,-0.855 -7.655,-2.564c-1.758,-1.709 -2.637,-4.212 -2.637,-7.507l0,-18.962l-6.051,0Z" style="fill:#34495e;fill-rule:nonzero;"/></g><path d="M20.817,7.953l26.888,0l0,-6.722l6.722,0l0,6.722l3.361,0c3.697,0 6.722,3.025 6.722,6.722l0,47.054c0,3.697 -3.025,6.722 -6.722,6.722l-47.054,0c-3.73,0 -6.722,-3.025 -6.722,-6.722l0.034,-47.054c0,-3.697 2.957,-6.722 6.688,-6.722l3.361,0l0,-6.722l6.722,0l0,6.722Zm10.487,17.076l-8.021,0c-0.814,0 -1.589,0.326 -2.164,0.9l-5.235,5.226l-5.373,0c-0.842,0 -1.531,0.689 -1.531,1.531l0,18.368c0,0.843 0.689,1.532 1.531,1.532l7.124,0l8.663,7.839c2.622,2.135 6.48,1.733 8.614,-0.89l0.019,-0.019l1.714,1.483c1.521,1.245 3.771,1.005 5.006,-0.516l3.005,-3.695l0.517,0.421c1.311,1.062 3.245,0.871 4.307,-0.45l0.909,-1.12c1.072,-1.321 0.872,-3.244 -0.44,-4.317l-14.29,-11.6l-2.872,2.632c-3.886,3.551 -8.308,1.139 -9.734,-0.421c-2.575,-2.814 -2.374,-7.17 0.421,-9.735l7.83,-7.169Zm13.946,0l-8.223,0c-0.765,0 -1.502,0.287 -2.067,0.804l-9.409,8.615c-0.01,0.009 -0.019,0.028 -0.029,0.038c-1.598,1.503 -1.56,3.886 -0.201,5.36c0.919,1.005 3.35,2.067 5.37,0.258c0.01,-0.009 0.029,-0.009 0.038,-0.019l5.073,-4.642l2.585,-2.364c0.622,-0.565 1.589,-0.527 2.163,0.096c0.574,0.622 0.526,1.588 -0.096,2.163l-2.498,2.287l13.936,11.314c1.168,0.948 1.867,2.249 2.125,3.628l3.994,0c0.842,0 1.532,-0.689 1.532,-1.532l0,-18.358c0,-0.842 -0.69,-1.522 -1.532,-1.522l-5.372,0l-5.226,-5.226c-0.575,-0.574 -1.35,-0.9 -2.163,-0.9Z" style="fill:#34495e;fill-rule:nonzero;"/></svg>
